<svg width="80" height="80" viewBox="0 0 95 95" fill="none" xmlns="http://www.w3.org/2000/svg" xmlns:xlink="http://www.w3.org/1999/xlink">
	<desc>
			Created with Pixso.
	</desc>
	<defs>
		<clipPath id="clip5_62">
			<rect width="95" height="95" fill="white" fill-opacity="0"/>
		</clipPath>
	</defs>
	<rect width="95" height="95" fill="#FFFFFF" fill-opacity="0"/>
	<g clip-path="url(#clip5_62)" transform="translate(0, 11)">
		<path d="M23.75 80.75L1.58 80.75C0.7 80.75 0 81.46 0 82.33C0 83.2 0.7 83.91 1.58 83.91L23.75 83.91C24.62 83.91 25.33 83.2 25.33 82.33C25.33 81.46 24.62 80.75 23.75 80.75Z" fill="#D4C17F" fill-opacity="1.000000" fill-rule="nonzero"/>
		<path d="M19 77.58C29.47 77.58 38 69.05 38 58.58C38 53.33 35.9 48.45 32.11 44.82C31.47 44.22 30.47 44.24 29.87 44.87C29.26 45.51 29.29 46.51 29.92 47.11C33.08 50.13 34.83 54.2 34.83 58.58C34.83 67.31 27.73 74.41 19 74.41C10.26 74.41 3.16 67.31 3.16 58.58C3.16 49.84 10.26 42.74 19 42.74C19.87 42.74 20.58 42.03 20.58 41.16C20.58 40.28 19.87 39.58 19 39.58C8.52 39.58 0 48.1 0 58.58C6.1e-5 69.05 8.52 77.58 19 77.58Z" fill="#D4C17F" fill-opacity="1.000000" fill-rule="nonzero"/>
		<path d="M26.91 33.24L27.71 33.24L18.57 55.45C17.03 55.66 15.83 56.98 15.83 58.58C15.83 60.32 17.25 61.74 19 61.74C20.74 61.74 22.16 60.32 22.16 58.58C22.16 57.85 21.91 57.19 21.5 56.66L30.43 34.96L40.45 49.51C40.95 50.23 41.93 50.42 42.65 49.92C43.38 49.42 43.56 48.44 43.06 47.72L33.09 33.24L36.41 33.24C39.03 33.24 41.16 31.11 41.16 28.49C41.16 25.87 39.03 23.74 36.41 23.74L26.91 23.74C26.04 23.74 25.33 24.45 25.33 25.33L25.33 31.66C25.33 32.53 26.04 33.24 26.91 33.24ZM28.5 26.91L36.41 26.91C37.29 26.91 38 27.62 38 28.49C38 29.37 37.29 30.08 36.41 30.08L28.5 30.08L28.5 26.91Z" fill="#D4C17F" fill-opacity="1.000000" fill-rule="nonzero"/>
		<path d="M74.41 41.16C74.41 42.03 75.12 42.74 76 42.74C84.73 42.74 91.83 49.84 91.83 58.58C91.83 67.31 84.73 74.41 76 74.41C67.26 74.41 60.16 67.31 60.16 58.58C60.16 53.83 62.26 49.38 65.93 46.35C66.6 45.8 66.7 44.8 66.14 44.13C65.59 43.45 64.59 43.35 63.91 43.91C59.52 47.54 57 52.88 57 58.58C57 69.05 65.52 77.58 76 77.58C86.47 77.58 95 69.05 95 58.58C95 48.1 86.47 39.58 76 39.58C75.12 39.58 74.41 40.28 74.41 41.16Z" fill="#D4C17F" fill-opacity="1.000000" fill-rule="nonzero"/>
		<path d="M49.08 80.75L33.25 80.75C32.37 80.75 31.66 81.46 31.66 82.33C31.66 83.2 32.37 83.91 33.25 83.91L49.08 83.91C49.95 83.91 50.66 83.2 50.66 82.33C50.66 81.46 49.95 80.75 49.08 80.75Z" fill="#D4C17F" fill-opacity="1.000000" fill-rule="nonzero"/>
		<path d="M49.08 50.88L49.08 45.91C49.95 45.91 50.66 45.2 50.66 44.33C50.66 43.45 49.95 42.74 49.08 42.74L45.91 42.74C45.04 42.74 44.33 43.45 44.33 44.33C44.33 45.2 45.04 45.91 45.91 45.91L45.91 50.88C43.19 51.59 41.16 54.05 41.16 56.99C41.16 59.94 43.19 62.39 45.91 63.1L45.91 68.08C45.04 68.08 44.33 68.78 44.33 69.66C44.33 70.53 45.04 71.24 45.91 71.24L49.08 71.24C49.95 71.24 50.66 70.53 50.66 69.66C50.66 68.78 49.95 68.08 49.08 68.08L49.08 63.1C51.8 62.39 53.83 59.94 53.83 56.99C53.83 54.05 51.8 51.59 49.08 50.88ZM47.5 60.16C45.75 60.16 44.33 58.74 44.33 56.99C44.33 55.25 45.75 53.83 47.5 53.83C49.24 53.83 50.66 55.25 50.66 56.99C50.66 58.74 49.24 60.16 47.5 60.16Z" fill="#D4C17F" fill-opacity="1.000000" fill-rule="nonzero"/>
		<path d="M73.56 56.58C73.11 57.13 72.83 57.82 72.83 58.58C72.83 60.32 74.25 61.74 76 61.74C77.74 61.74 79.16 60.32 79.16 58.58C79.16 57.01 78.01 55.71 76.52 55.46L69.37 36.41L80.68 36.41C82.57 36.41 83.67 34.89 83.88 33.55L85.46 25.64C85.56 25.17 85.44 24.69 85.14 24.32C84.83 23.96 84.39 23.74 83.91 23.74L69.66 23.74C68.79 23.74 68.08 24.45 68.08 25.33C68.08 26.2 68.79 26.91 69.66 26.91L81.98 26.91L80.77 32.97C80.75 33.08 80.68 33.23 80.68 33.24L68.19 33.24L63.23 20.02C63.23 20.01 63.22 20.01 63.22 20C63.22 20 63.22 19.99 63.22 19.99L60.05 12.07C59.73 11.26 58.8 10.87 57.99 11.19C57.18 11.51 56.78 12.43 57.11 13.25L59.99 20.45L54.04 30.87C53.6 31.63 53.87 32.6 54.63 33.03C54.87 33.17 55.14 33.24 55.41 33.24C55.96 33.24 56.49 32.96 56.79 32.44L61.45 24.29L65.26 34.45L53.19 48.02C52.61 48.68 52.67 49.68 53.32 50.26C53.62 50.53 54 50.66 54.37 50.66C54.81 50.66 55.24 50.48 55.56 50.13L66.51 37.8L73.56 56.58Z" fill="#D4C17F" fill-opacity="1.000000" fill-rule="nonzero"/>
		<path d="M93.41 80.75L68.08 80.75C67.2 80.75 66.5 81.46 66.5 82.33C66.5 83.2 67.2 83.91 68.08 83.91L93.41 83.91C94.29 83.91 94.99 83.2 94.99 82.33C95 81.46 94.29 80.75 93.41 80.75Z" fill="#D4C17F" fill-opacity="1.000000" fill-rule="nonzero"/>
		<path d="M61.75 80.75L58.58 80.75C57.7 80.75 57 81.46 57 82.33C57 83.2 57.7 83.91 58.58 83.91L61.75 83.91C62.62 83.91 63.33 83.2 63.33 82.33C63.33 81.46 62.62 80.75 61.75 80.75Z" fill="#D4C17F" fill-opacity="1.000000" fill-rule="nonzero"/>
	</g>
</svg>
